<?xml version="1.0" encoding="UTF-8"?>
<!DOCTYPE svg PUBLIC "-//W3C//DTD SVG 1.1//EN" "http://www.w3.org/Graphics/SVG/1.1/DTD/svg11.dtd">
<!-- Creator: CorelDRAW -->
<svg xmlns="http://www.w3.org/2000/svg" xml:space="preserve" width="180mm" height="80mm" style="shape-rendering:geometricPrecision; text-rendering:geometricPrecision; image-rendering:optimizeQuality; fill-rule:evenodd; clip-rule:evenodd"
viewBox="0 0 180 80"
 xmlns:xlink="http://www.w3.org/1999/xlink"
 xmlns:svg="http://www.w3.org/2000/svg"
 version="1.0">
 <defs>
  <style type="text/css">
   <![CDATA[
    .fil0 {fill:black}
    .fil1 {fill:#AF2024}
   ]]>
  </style>
 </defs>
 <g id="Layer_x0020_1">
  <metadata id="CorelCorpID_0Corel-Layer"/>
  <g id="layer1">
   <g id="g2398">
    <path id="path2623" class="fil0" d="M40.4276 4.7792c-5.3888,13.694 -12.802,12.1236 -17.068,12.1236l-8.9636 0 -4.7292 11.9088 21.4528 0 -14.488 36.8228c-4.154,10.6644 4.4976,13.4564 8.4264,13.4564l32.8888 0 4.4924 -11.436 -25.15 0c-6.512,0 -6.1836,-3.9348 -4.8368,-7.416l8.3192 -21.2164c3.48,-8.756 13.5848,-10.2108 16.6164,-10.2108l51.0744 0 4.6 -11.9088 -63.6496 0 4.8152 -12.1236 -13.8004 0zm13.4564 28.998c-2.92,0 -7.7564,0.7968 -9.888,6.2984 0.1112,0 -5.5032,14.2516 -5.5032,14.2516 -1.3468,3.0316 -2.1316,7.7388 3.4824,7.7388l17.0032 0c4.154,0 8.3144,-3.144 9.4368,-6.062l6.1692 -15.4984c1.1228,-3.0316 1.1304,-6.7284 -4.7076,-6.7284l-15.9928 0zm26.9776 0.0432l-17.7344 45.3564 11.2208 0 6.7068 -17.1752 0.0216 0.1072 12.1236 0c4.154,0 8.314,-3.1436 9.4368,-6.0616l6.1692 -15.4988c1.1228,-3.0312 1.1304,-6.728 -4.7076,-6.728l-23.2368 0zm34.3072 0l-17.7556 45.3564 11.2424 0 6.7284 -17.24 0 0.172 12.1236 0c4.154,0 8.314,-3.1436 9.4368,-6.0616l6.1692 -15.4988c1.1228,-3.0312 1.1304,-6.728 -4.7076,-6.728l-23.2372 0zm40.52 0c-3.1428,0 -6.4044,0.9032 -7.9748,4.944l-4.7076 12.1236c-1.1228,2.47 -1.2396,7.416 4.1484,7.416l4.3852 0c1.3456,0 2.0212,1.1032 1.462,2.4508l-1.634 4.3204c-0.6748,1.3476 -1.7352,2.644 -3.8692,2.644l-28.1812 0 -4.4924 11.4576 34.1356 0c3.256,0 7.5076,-0.3432 9.8664,-6.406l6.9648 -17.734c1.1224,-2.918 0.3292,-6.1696 -3.3748,-6.1696l-5.9544 0c-1.292,0 -1.7808,-0.894 -1.3328,-2.128l0.8384 -2.1924c0.4496,-0.7864 0.96,-1.29 2.644,-1.29l10.662 0 3.6972 -9.4364 -17.2828 0zm-99.4616 9.3936l3.7188 0c1.4588,0 1.9092,1.2204 1.4616,2.3432l-1.8056 4.7288c-0.45,1.234 -2.012,2.3432 -3.246,2.3432l-3.7188 0c-1.3456,0 -1.904,-0.8816 -1.1176,-2.902l1.5692 -4.17c0.786,-1.7976 2.0136,-2.3432 3.1384,-2.3432zm32.1576 0.0428l5.2668 0c1.5724,0 2.8092,0.6756 1.4616,4.0416 -1.888,4.7232 -4.4924,4.0412 -4.4924,4.0412l-5.3956 0 3.1596 -8.0828zm34.3076 0l5.2668 0c1.5704,0 2.8092,0.6756 1.4616,4.0416 -1.8884,4.7232 -4.4928,4.0412 -4.4928,4.0412l-5.3952 0 3.1596 -8.0828z"/>
    <path id="path2488" class="fil1" d="M112.218 58.8572l12.1236 0.086c4.1544,0 8.3144,-3.144 9.4368,-6.062l6.1696 -15.4988c1.1224,-3.0312 1.13,-6.728 -4.7076,-6.728l-23.2372 0 -17.7556 45.3564 11.2424 0 6.728 -17.1536zm-34.3184 0.032l12.1348 0.054c4.154,0 8.314,-3.144 9.4364,-6.062l6.1696 -15.4988c1.1224,-3.0312 1.1304,-6.728 -4.7076,-6.728l-23.2372 0 -17.7344 45.3564 11.2212 0 6.7172 -17.1216zm-40.638 -57.276c-5.3888,13.6944 -12.802,12.124 -17.0676,12.124l-8.964 0 -4.7292 11.9088 21.4532 0 -14.4884 36.8224c-4.154,10.6648 4.4976,13.4564 8.4264,13.4564l32.8888 0 4.4928 -11.4356 -25.1504 0c-6.5116,0 -6.1836,-3.9348 -4.8364,-7.4164l8.3188 -21.2164c3.48,-8.756 13.5848,-10.2104 16.6164,-10.2104l51.0744 0 4.6 -11.9088 -63.6496 0 4.8152 -12.124 -13.8004 0zm13.4564 28.998c-2.92,0.0004 -7.7564,0.7968 -9.888,6.2984 0.1116,0 -5.5028,14.252 -5.5028,14.252 -1.3472,3.0312 -2.1316,7.7384 3.482,7.7384l17.0036 0c4.154,0 8.314,-3.144 9.4368,-6.0616l6.1692 -15.4988c1.1224,-3.0316 1.1304,-6.7284 -4.7076,-6.7284l-15.9932 0zm101.805 0.0432c-3.1428,0 -6.4044,0.9036 -7.9748,4.944l-4.7076 12.1236c-1.1228,2.4704 -1.2392,7.4164 4.1488,7.4164l4.3852 0c1.3452,0 2.0208,1.1028 1.4616,2.4504l-1.6336 4.3208c-0.6748,1.3476 -1.7356,2.644 -3.8692,2.644l-28.1812 0 -4.4928 11.4572 34.1356 0c3.2564,0 7.508,-0.3428 9.8664,-6.4056l6.9648 -17.7344c1.1228,-2.918 0.3296,-6.1692 -3.3748,-6.1692l-5.9544 0c-1.2916,0 -1.7804,-0.894 -1.3328,-2.128l0.8384 -2.1928c0.45,-0.786 0.96,-1.2896 2.644,-1.2896l10.662 0 3.6972 -9.4368 -17.2828 0zm-99.4616 9.3936l3.7188 0c1.4588,0 1.9096,1.2204 1.4616,2.3432l-1.8056 4.7292c-0.45,1.234 -2.0116,2.3428 -3.246,2.3428l-3.7188 0c-1.3452,0 -1.904,-0.8816 -1.1176,-2.9016l1.5692 -4.1704c0.786,-1.7976 2.0136,-2.3432 3.1384,-2.3432zm32.158 0.0432l5.2664 0c1.5724,0 2.8092,0.6756 1.4616,4.0412 -1.888,4.7236 -4.4924,4.0412 -4.4924,4.0412l-5.3956 0 3.16 -8.0824zm34.3076 0l5.2664 0c1.5704,0 2.8092,0.6756 1.4616,4.0412 -1.888,4.7236 -4.4924,4.0412 -4.4924,4.0412l-5.3956 0 3.16 -8.0824z"/>
    <path id="path2676" class="fil0" d="M170.515 26.4196c0,-1.0856 0.812,-1.9056 1.8532,-1.9056 1.0288,0 1.8416,0.82 1.8416,1.9056 0,1.1036 -0.8128,1.9168 -1.8416,1.9168 -1.0412,0 -1.8532,-0.8132 -1.8532,-1.9168zm1.8532 2.2992c1.2396,0 2.2984,-0.9708 2.2984,-2.2992 0,-1.3168 -1.0588,-2.2872 -2.2984,-2.2872 -1.2512,0 -2.3108,0.9704 -2.3108,2.2872 0,1.3284 1.0596,2.2992 2.3108,2.2992zm-0.4816 -2.1176l0.458 0 0.6916 1.1468 0.4448 0 -0.746 -1.1648c0.3856,-0.0484 0.6804,-0.2552 0.6804,-0.7276 0,-0.5216 -0.3064,-0.7528 -0.9268,-0.7528l-0.9992 0 0 2.6452 0.3972 0 0 -1.1468zm0 -0.3396l0 -0.8188 0.5416 0c0.2768,0 0.572,0.0604 0.572,0.3884 0,0.4064 -0.3008,0.4304 -0.6376,0.4304l-0.476 0z"/>
    <path id="path2392" class="fil0" d="M36.7312 0.8232l-0.2112 0.4928c-2.6452,6.7224 -5.6788,9.5468 -8.5184,10.7712 -2.8396,1.224 -5.584,0.8624 -7.814,0.8624l-8.9584 0 -0.528 0 -0.2112 0.4928 -4.7168 11.9148 -0.44 1.0736 1.1616 0 20.2924 0 -14.062 35.7452c-2.1528,5.5272 -0.9776,9.362 1.3728,11.598 2.3504,2.2364 5.6448,2.9392 7.7968,2.9392l32.8936 0 0.528 0 0.1936 -0.4928 4.5056 -11.4396 0.4224 -1.0912 -1.1616 0 -25.15 0c-1.548,0 -2.6312,-0.232 -3.344,-0.5808 -0.7124,-0.3492 -1.0712,-0.7832 -1.2848,-1.32 -0.4264,-1.074 -0.1168,-2.768 0.528,-4.4352l8.3248 -21.2076c1.6484,-4.1476 4.8332,-6.554 8.0432,-7.9552 3.21,-1.4012 6.4424,-1.76 7.8316,-1.76l51.0744 0 0.5456 0 0.1936 -0.4928 4.5936 -11.9148 0.4224 -1.0736 -1.1616 0 -62.4964 0 4.3996 -11.0528 0.44 -1.0736 -1.1792 0 -13.798 0 -0.528 0zm1.0208 1.584l12.126 0 -4.3644 11.0352 -0.44 1.0912 1.1792 0 62.4788 0 -3.9776 10.3132 -50.5288 0c-1.6424,0 -4.9952,0.386 -8.4652,1.9008 -3.4704,1.5152 -7.0564,4.2092 -8.888,8.8176l-8.3248 21.2252c-0.7016,1.814 -1.2284,3.8328 -0.528,5.5968 0.3504,0.8816 1.044,1.6496 2.0592,2.1472 1.0152,0.4972 2.3404,0.7392 4.048,0.7392l23.9884 0 -3.872 9.8556 -32.348 0c-1.7772,0 -4.7864,-0.6732 -6.7056,-2.4992 -1.9192,-1.8256 -2.9868,-4.736 -0.9856,-9.8732l14.4844 -36.8188 0.4224 -1.0912 -1.1616 0 -20.2748 0 4.0832 -10.3132 8.4304 0c2.0356,0 5.1496,0.4108 8.43,-1.0032 3.1888,-1.3748 6.4352,-4.5488 9.1344,-11.1232zm12.9708 27.4204c-1.532,0 -3.602,0.2004 -5.5964,1.1616 -1.9948,0.9612 -3.8996,2.7052 -5.0336,5.632l-0.4224 1.0736 0.0528 0c-0.128,0.3432 -0.2548,0.6772 -0.44,1.1616 -0.5096,1.3328 -1.2064,3.112 -1.9008,4.8924 -1.3892,3.5616 -2.7984,7.128 -2.7984,7.128 -0.712,1.6024 -1.3,3.5988 -0.8976,5.456 0.2012,0.9284 0.7004,1.8196 1.5664,2.4288 0.866,0.6088 2.0412,0.9328 3.5552,0.9328l17.0012 0c2.2768,0 4.4916,-0.852 6.3008,-2.0768 1.8092,-1.2248 3.2272,-2.812 3.872,-4.488l6.1776 -15.5052 0 -0.0176c0.5972,-1.6136 0.96,-3.464 0.2288,-5.0864 -0.7316,-1.6224 -2.5988,-2.6928 -5.6848,-2.6928l-15.9808 0zm26.4348 0.0352l-0.1936 0.5104 -17.7404 45.3544 -0.4224 1.0736 1.1616 0 11.2112 0 0.5456 0 0.1936 -0.4928 6.5292 -16.6316 11.5808 0.0528 0.0176 0c2.2768,0 4.4916,-0.8344 6.3008,-2.0592 1.8088,-1.2248 3.2272,-2.8296 3.8716,-4.5056l6.16 -15.4876 0 -0.0176 0.0176 0c0.5976,-1.6136 0.9604,-3.4816 0.2288,-5.104 -0.7312,-1.6224 -2.5988,-2.6928 -5.6848,-2.6928l-23.2316 0 -0.5456 0zm34.302 0l-0.1936 0.5104 -17.758 45.3544 -0.4224 1.0736 1.1616 0 11.246 0 0.528 0 0.2112 -0.4928 6.5296 -16.6668 11.5804 0.088c2.2768,0 4.4916,-0.8344 6.3008,-2.0592 1.8092,-1.2248 3.2272,-2.8296 3.872,-4.5056l6.16 -15.4876 0.0176 -0.0176c0.5972,-1.6136 0.96,-3.4816 0.2288,-5.104 -0.7316,-1.6224 -2.5988,-2.6928 -5.6848,-2.6928l-23.2316 0 -0.5456 0zm41.06 0c-1.6472,0 -3.3816,0.2244 -4.9456,1.0384 -1.5636,0.814 -2.9212,2.2432 -3.766,4.4176l-4.6816 12.0732 -0.0176 0.0352c-0.6304,1.4048 -0.9744,3.3748 -0.3872,5.1744 0.5916,1.8136 2.326,3.3264 5.2624,3.3264l4.382 0c0.4568,0 0.66,0.144 0.7744,0.3344 0.1148,0.1904 0.172,0.522 -0.0352,1.0208l0 0.0176 -0.0176 0 -1.6016 4.2592c-0.3084,0.616 -0.6736,1.176 -1.1616,1.5664 -0.488,0.39 -1.082,0.6336 -1.9884,0.6336l-28.1772 0 -0.5456 0 -0.1936 0.5104 -4.5056 11.4572 -0.4224 1.0736 1.1616 0 34.1432 0c1.656,0 3.6716,-0.0744 5.6144,-1.0032 1.9432,-0.9288 3.7452,-2.7368 4.9808,-5.9136l6.9696 -17.7228c0.6192,-1.6092 0.7424,-3.3476 0.1056,-4.7872 -0.6372,-1.4396 -2.1404,-2.464 -4.224,-2.464l-5.9488 0c-0.4632,0 -0.57,-0.1056 -0.6336,-0.2112 -0.0636,-0.1052 -0.1188,-0.3896 0.0528,-0.8624l0.792 -2.0764c0.188,-0.3248 0.3216,-0.5064 0.5456,-0.6336 0.2308,-0.1312 0.6272,-0.2464 1.3904,-0.2464l10.6656 0 0.5456 0 0.1936 -0.4928 3.6956 -9.4512 0.4224 -1.0736 -1.1616 0 -17.2828 0zm-101.797 1.5488l15.9808 0c2.752,0 3.798,0.776 4.2416,1.76 0.4432,0.9836 0.2608,2.4716 -0.264,3.8896l-6.16 15.4876 -0.0176 0c-0.478,1.242 -1.6836,2.6896 -3.2736,3.7664 -1.59,1.0764 -3.5432,1.7952 -5.4208,1.7952l-17.0012 0c-1.2928,0 -2.116,-0.2652 -2.64,-0.6336 -0.5236,-0.3684 -0.7968,-0.8512 -0.9328,-1.4784 -0.272,-1.2544 0.1748,-3.0944 0.8096,-4.5232l0.0176 0 0 -0.0176c0,0 1.408,-3.5632 2.7984,-7.128 0.6952,-1.782 1.3888,-3.5708 1.9008,-4.91 0.256,-0.67 0.4528,-1.2228 0.5984,-1.6192 0.0728,-0.1984 0.1364,-0.3568 0.176,-0.4752 0.0152,-0.0456 0.0232,-0.0824 0.0352,-0.1232 0.0052,-0.0132 0.0124,-0.022 0.0176,-0.0352 0.9984,-2.5496 2.5636,-3.9436 4.2416,-4.752 1.6864,-0.8128 3.5044,-1.0032 4.8924,-1.0032zm27.5084 0.0352l22.7036 0c2.752,0 3.798,0.776 4.2416,1.76 0.4436,0.9836 0.2436,2.4892 -0.2816,3.9072l-6.16 15.47 0 0.0176c-0.4776,1.242 -1.7008,2.672 -3.2908,3.7488 -1.5904,1.0764 -3.526,1.7952 -5.4032,1.7952l-12.144 -0.0528 -0.528 0 -0.2112 0.5104 -6.5116 16.614 -9.5216 0 17.1068 -43.7704zm34.3196 0l22.686 0c2.752,0 3.798,0.776 4.2416,1.76 0.4436,0.9836 0.2612,2.4892 -0.264,3.9072l-6.1776 15.47 0 0.0176c-0.478,1.242 -1.7012,2.672 -3.2912,3.7488 -1.59,1.0764 -3.5256,1.7952 -5.4032,1.7952l-12.126 -0.088 -0.528 0 -0.2112 0.5104 -6.5296 16.6492 -9.5388 0 17.142 -43.7704zm39.9688 0l16.1216 0 -3.08 7.8496 -10.12 0c-0.9208,0 -1.6068,0.1404 -2.1648,0.4576 -0.5576,0.3168 -0.9088,0.79 -1.1616,1.232l-0.0352 0.0528 -0.0176 0.0528 -0.8448 2.1996 0 0.0176c-0.276,0.7616 -0.3036,1.55 0.088,2.2 0.392,0.6504 1.1604,0.9856 1.9888,0.9856l5.9488 0c1.6204,0 2.3756,0.598 2.7808,1.5136 0.4048,0.9156 0.3628,2.264 -0.1408,3.5728l-6.952 17.7404c-1.1228,2.8864 -2.6196,4.2928 -4.2064,5.0512 -1.5864,0.7584 -3.3276,0.8448 -4.928,0.8448l-32.9816 0 3.872 -9.8732 27.6492 0c1.2272,0 2.2296,-0.3908 2.974,-0.9856 0.7448,-0.5952 1.2356,-1.3632 1.6016,-2.0944l0.0176 -0.0352 0.0176 -0.0352 1.6368 -4.3296c0.3524,-0.8488 0.332,-1.7132 -0.088,-2.4112 -0.4196,-0.698 -1.2404,-1.1088 -2.1296,-1.1088l-4.382 0c-2.452,0 -3.35,-0.9584 -3.7664,-2.2352 -0.4164,-1.2768 -0.1312,-3.002 0.352,-4.0656l0 -0.0176 0 -0.0176 4.7164 -12.126c0.7256,-1.8664 1.782,-2.9248 3.0272,-3.5728 1.2456,-0.648 2.7108,-0.8624 4.2064,-0.8624zm-99.456 7.8144c-1.3804,0 -2.988,0.7952 -3.872,2.816l0 0.0176 -0.0176 0.0176 -1.566 4.1708c-0.4304,1.1056 -0.564,2.0204 -0.2112,2.816 0.3524,0.7956 1.2308,1.1616 2.0764,1.1616l3.7136 0c0.8544,0 1.6696,-0.3548 2.376,-0.8624 0.7068,-0.5072 1.3196,-1.184 1.6192,-2.0064l1.7952 -4.7168c0.2944,-0.7376 0.3228,-1.5528 -0.0528,-2.2524 -0.3752,-0.6996 -1.1968,-1.1616 -2.1472,-1.1616l-3.7136 0zm31.6092 0.0352l-0.1936 0.5104 -3.1504 8.078 -0.4224 1.0736 1.144 0 5.4032 0c0.1104,0.0204 0.1996,0.0444 0.4576,0.0352 0.3668,-0.0132 0.8768,-0.0924 1.4256,-0.352 1.0972,-0.5192 2.3484,-1.7332 3.344,-4.224 0.7116,-1.7772 0.8568,-3.0156 0.3168,-3.9596 -0.27,-0.472 -0.7156,-0.7868 -1.1616,-0.9504 -0.4464,-0.164 -0.9056,-0.2112 -1.3552,-0.2112l-5.2624 0 -0.5456 0zm34.3196 0l-0.2112 0.5104 -3.1504 8.078 -0.4224 1.0736 1.1616 0 5.3852 0c0.1092,0.02 0.2148,0.0448 0.4752,0.0352 0.3672,-0.0132 0.8596,-0.0924 1.408,-0.352 1.0976,-0.5192 2.3484,-1.7332 3.344,-4.224 0.7116,-1.7772 0.8572,-3.016 0.3168,-3.9596 -0.27,-0.472 -0.7152,-0.7868 -1.1616,-0.9504 -0.446,-0.164 -0.888,-0.2112 -1.3376,-0.2112l-5.2796 0 -0.528 0zm-65.9288 1.5488l3.7136 0c0.5088,0 0.6544,0.1428 0.7568,0.3344 0.1028,0.1912 0.1184,0.5304 -0.0352,0.9152l0 0.0176 -1.7952 4.734 -0.0176 0c-0.15,0.412 -0.5432,0.9116 -1.0384,1.2672 -0.4952,0.3556 -1.0808,0.5632 -1.4608,0.5632l-3.7136 0c-0.4996,0 -0.5668,-0.0784 -0.6332,-0.2288 -0.0668,-0.1504 -0.11,-0.6868 0.2464,-1.6016l1.566 -4.136c0.004,-0.0084 0.014,-0.0088 0.0176,-0.0176l0 -0.0176c0.6856,-1.5372 1.5328,-1.83 2.3936,-1.83zm32.7004 0.0352l4.7168 0c0.3364,0 0.6236,0.0372 0.8096,0.1056 0.1856,0.068 0.2672,0.1464 0.3344,0.264 0.1344,0.2348 0.2312,0.9988 -0.4048,2.5868 -0.8928,2.2332 -1.8928,3.0588 -2.5696,3.3792 -0.3384,0.1604 -0.6116,0.1872 -0.792,0.1936 -0.1804,0.0068 -0.2112,0 -0.2112,0l-0.088 -0.0352 -0.1056 0 -4.2416 0 2.552 -6.494zm34.302 0l4.734 0c0.336,0 0.624,0.0372 0.8096,0.1056 0.186,0.068 0.2496,0.146 0.3168,0.264 0.1348,0.2352 0.2312,0.9988 -0.4048,2.5868 -0.8924,2.2332 -1.8748,3.0588 -2.552,3.3792 -0.3384,0.1604 -0.6116,0.1872 -0.792,0.1936 -0.18,0.0068 -0.2112,0 -0.2112,0l-0.1056 -0.0352 -0.1056 0 -4.2236 0 2.5344 -6.494z"/>
   </g>
  </g>
 </g>
</svg>
